<?xml version="1.0" encoding="UTF-8"?>
<svg version="1.1" viewBox="0 0 601 242" xmlns="http://www.w3.org/2000/svg" xmlns:cc="http://creativecommons.org/ns#" xmlns:dc="http://purl.org/dc/elements/1.1/" xmlns:rdf="http://www.w3.org/1999/02/22-rdf-syntax-ns#">
<defs>
<marker id="a" overflow="visible" orient="auto">
<path transform="scale(.4) rotate(180) translate(10)" d="m0 0l5-5-17.5 5 17.5 5-5-5z" fill-rule="evenodd" stroke="#000" stroke-width="1pt"/>
</marker>
<marker id="b" overflow="visible" orient="auto">
<path transform="matrix(-.4 0 0 -.4 -4 0)" d="m0 0 5-5-17.5 5 17.5 5-5-5z" fill-rule="evenodd" stroke="#000" stroke-width="1pt"/>
</marker>
</defs>
<metadata>
<rdf:RDF>
<cc:Work rdf:about="">
<dc:format>image/svg+xml</dc:format>
<dc:type rdf:resource="http://purl.org/dc/dcmitype/StillImage"/>
<dc:title/>
</cc:Work>
</rdf:RDF>
</metadata>
<g>
<text x="310.73828" y="226" fill="#000000" font-family="DejaVu Sans" font-size="16px" letter-spacing="0px" text-align="center" text-anchor="middle" word-spacing="0px" style="line-height:125%" xml:space="preserve"><tspan x="310.73828" y="226">Cipher Block Chaining (CBC) mode decryption</tspan></text>
<g transform="translate(20,-6)">
<text transform="translate(0 -810.36)" x="137.96094" y="904.67273" fill="#000000" font-family="DejaVu Sans" font-size="12px" letter-spacing="0px" text-align="center" text-anchor="middle" word-spacing="0px" style="line-height:125%" xml:space="preserve"><tspan x="137.96094" y="904.67273">block cipher</tspan><tspan x="137.96094" y="919.67273">decryption</tspan></text>
<rect x="89.5" y="80.5" width="98" height="36" fill="none" stroke="#000" stroke-linecap="square"/>
</g>
<g transform="translate(18,-12)" fill="none" stroke="#000" stroke-linecap="square">
<rect x="88.5" y="48.5" width="8" height="10"/>
<rect x="96.5" y="48.5" width="8" height="10"/>
<rect x="104.5" y="48.5" width="8" height="10"/>
<rect x="112.5" y="48.5" width="8" height="10"/>
<rect x="120.5" y="48.5" width="8" height="10"/>
<rect x="128.5" y="48.5" width="8" height="10"/>
<rect x="136.5" y="48.5" width="8" height="10"/>
<rect x="144.5" y="48.5" width="8" height="10"/>
<rect x="152.5" y="48.5" width="8" height="10"/>
<rect x="160.5" y="48.5" width="8" height="10"/>
<rect x="168.5" y="48.5" width="8" height="10"/>
<rect x="176.5" y="48.5" width="8" height="10"/>
<rect x="184.5" y="48.5" width="8" height="10"/>
</g>
<text x="51.643028" y="95.625977" fill="#000000" font-family="DejaVu Sans" font-size="12px" letter-spacing="0px" word-spacing="0px" style="line-height:125%" xml:space="preserve"><tspan x="51.643028" y="95.625977">Key</tspan></text>
<g transform="translate(18,117)" fill="none" stroke="#000" stroke-linecap="square">
<rect x="88.5" y="48.5" width="8" height="10"/>
<rect x="96.5" y="48.5" width="8" height="10"/>
<rect x="104.5" y="48.5" width="8" height="10"/>
<rect x="112.5" y="48.5" width="8" height="10"/>
<rect x="120.5" y="48.5" width="8" height="10"/>
<rect x="128.5" y="48.5" width="8" height="10"/>
<rect x="136.5" y="48.5" width="8" height="10"/>
<rect x="144.5" y="48.5" width="8" height="10"/>
<rect x="152.5" y="48.5" width="8" height="10"/>
<rect x="160.5" y="48.5" width="8" height="10"/>
<rect x="168.5" y="48.5" width="8" height="10"/>
<rect x="176.5" y="48.5" width="8" height="10"/>
<rect x="184.5" y="48.5" width="8" height="10"/>
</g>
<text x="158.30957" y="190.5" fill="#000000" font-family="DejaVu Sans" font-size="12px" letter-spacing="0px" word-spacing="0px" style="line-height:125%" xml:space="preserve"><tspan x="158.30957" y="190.5" text-align="center" text-anchor="middle">Plaintext</tspan></text>
<path d="m158.5 113.5v47" fill="none" marker-end="url(#a)" stroke="#000" stroke-width="1px"/>
<path d="m77.5 92.5h27" fill="none" marker-end="url(#a)" stroke="#000" stroke-width="1px"/>
<path d="m158.5 51.5v19" fill="none" marker-end="url(#a)" stroke="#000" stroke-width="1px"/>
<text x="158.05762" y="27.5" fill="#000000" font-family="DejaVu Sans" font-size="12px" letter-spacing="0px" text-align="center" text-anchor="middle" word-spacing="0px" style="line-height:125%" xml:space="preserve"><tspan x="158.05762" y="27.5" font-family="DejaVu Sans" font-size="12px" text-align="center" text-anchor="middle" style="line-height:125%">Ciphertext</tspan></text>
<g transform="translate(20,10)" fill="none" stroke="#000">
<path transform="translate(-2)" d="m146.5 133.5c0 3.3137-2.6863 6-6 6s-6-2.6863-6-6 2.6863-6 6-6 6 2.6863 6 6z" stroke-linecap="square"/>
<path d="m132.5 133.5h12" stroke-width="1px"/>
</g>
<g transform="translate(-82,90)" fill="none" stroke="#000" stroke-linecap="square">
<rect x="88.5" y="48.5" width="8" height="10"/>
<rect x="96.5" y="48.5" width="8" height="10"/>
<rect x="104.5" y="48.5" width="8" height="10"/>
<rect x="112.5" y="48.5" width="8" height="10"/>
<rect x="120.5" y="48.5" width="8" height="10"/>
<rect x="128.5" y="48.5" width="8" height="10"/>
<rect x="136.5" y="48.5" width="8" height="10"/>
<rect x="144.5" y="48.5" width="8" height="10"/>
<rect x="152.5" y="48.5" width="8" height="10"/>
<rect x="160.5" y="48.5" width="8" height="10"/>
<rect x="168.5" y="48.5" width="8" height="10"/>
<rect x="176.5" y="48.5" width="8" height="10"/>
<rect x="184.5" y="48.5" width="8" height="10"/>
</g>
<text x="4.8222656" y="129.25" fill="#000000" font-family="DejaVu Sans" font-size="12px" letter-spacing="0px" word-spacing="0px" style="line-height:125%" xml:space="preserve"><tspan x="4.8222656" y="129.25">Initialization Vector (IV)</tspan></text>
<path d="m114.5 143.5h34" fill="none" marker-end="url(#b)" stroke="#000" stroke-width="1px"/>
<path d="m158.5 59.5h64v84h109" fill="none" marker-end="url(#b)" stroke="#000" stroke-width="1px"/>
<g transform="translate(204 -6)">
<text transform="translate(0 -810.36)" x="137.96094" y="904.67273" fill="#000000" font-family="DejaVu Sans" font-size="12px" letter-spacing="0px" text-align="center" text-anchor="middle" word-spacing="0px" style="line-height:125%" xml:space="preserve"><tspan x="137.96094" y="904.67273">block cipher</tspan><tspan x="137.96094" y="919.67273">decryption</tspan></text>
<rect x="89.5" y="80.5" width="98" height="36" fill="none" stroke="#000" stroke-linecap="square"/>
</g>
<g transform="translate(202 -12)" fill="none" stroke="#000" stroke-linecap="square">
<rect x="88.5" y="48.5" width="8" height="10"/>
<rect x="96.5" y="48.5" width="8" height="10"/>
<rect x="104.5" y="48.5" width="8" height="10"/>
<rect x="112.5" y="48.5" width="8" height="10"/>
<rect x="120.5" y="48.5" width="8" height="10"/>
<rect x="128.5" y="48.5" width="8" height="10"/>
<rect x="136.5" y="48.5" width="8" height="10"/>
<rect x="144.5" y="48.5" width="8" height="10"/>
<rect x="152.5" y="48.5" width="8" height="10"/>
<rect x="160.5" y="48.5" width="8" height="10"/>
<rect x="168.5" y="48.5" width="8" height="10"/>
<rect x="176.5" y="48.5" width="8" height="10"/>
<rect x="184.5" y="48.5" width="8" height="10"/>
</g>
<text x="235.64304" y="95.625977" fill="#000000" font-family="DejaVu Sans" font-size="12px" letter-spacing="0px" word-spacing="0px" style="line-height:125%" xml:space="preserve"><tspan x="235.64304" y="95.625977">Key</tspan></text>
<g transform="translate(202,117)" fill="none" stroke="#000" stroke-linecap="square">
<rect x="88.5" y="48.5" width="8" height="10"/>
<rect x="96.5" y="48.5" width="8" height="10"/>
<rect x="104.5" y="48.5" width="8" height="10"/>
<rect x="112.5" y="48.5" width="8" height="10"/>
<rect x="120.5" y="48.5" width="8" height="10"/>
<rect x="128.5" y="48.5" width="8" height="10"/>
<rect x="136.5" y="48.5" width="8" height="10"/>
<rect x="144.5" y="48.5" width="8" height="10"/>
<rect x="152.5" y="48.5" width="8" height="10"/>
<rect x="160.5" y="48.5" width="8" height="10"/>
<rect x="168.5" y="48.5" width="8" height="10"/>
<rect x="176.5" y="48.5" width="8" height="10"/>
<rect x="184.5" y="48.5" width="8" height="10"/>
</g>
<text x="342.30957" y="190.5" fill="#000000" font-family="DejaVu Sans" font-size="12px" letter-spacing="0px" word-spacing="0px" style="line-height:125%" xml:space="preserve"><tspan x="342.30957" y="190.5" text-align="center" text-anchor="middle">Plaintext</tspan></text>
<path d="m342.5 113.5v47" fill="none" marker-end="url(#a)" stroke="#000" stroke-width="1px"/>
<path d="m261.5 92.5h27" fill="none" marker-end="url(#a)" stroke="#000" stroke-width="1px"/>
<path d="m342.5 51.5v19" fill="none" marker-end="url(#a)" stroke="#000" stroke-width="1px"/>
<text x="342.05762" y="27.499998" fill="#000000" font-family="DejaVu Sans" font-size="12px" letter-spacing="0px" text-align="center" text-anchor="middle" word-spacing="0px" style="line-height:125%" xml:space="preserve"><tspan x="342.05762" y="27.499998" font-family="DejaVu Sans" font-size="12px" text-align="center" text-anchor="middle" style="line-height:125%">Ciphertext</tspan></text>
<g transform="translate(204 10)" fill="none" stroke="#000">
<path transform="translate(-2)" d="m146.5 133.5c0 3.3137-2.6863 6-6 6s-6-2.6863-6-6 2.6863-6 6-6 6 2.6863 6 6z" stroke-linecap="square"/>
<path d="m132.5 133.5h12" stroke-width="1px"/>
</g>
<path d="m342.5 59.5h64v84h109" fill="none" marker-end="url(#b)" stroke="#000" stroke-width="1px"/>
<g transform="translate(388 -6)">
<text transform="translate(0 -810.36)" x="137.96094" y="904.67273" fill="#000000" font-family="DejaVu Sans" font-size="12px" letter-spacing="0px" text-align="center" text-anchor="middle" word-spacing="0px" style="line-height:125%" xml:space="preserve"><tspan x="137.96094" y="904.67273">block cipher</tspan><tspan x="137.96094" y="919.67273">decryption</tspan></text>
<rect x="89.5" y="80.5" width="98" height="36" fill="none" stroke="#000" stroke-linecap="square"/>
</g>
<g transform="translate(386 -12)" fill="none" stroke="#000" stroke-linecap="square">
<rect x="88.5" y="48.5" width="8" height="10"/>
<rect x="96.5" y="48.5" width="8" height="10"/>
<rect x="104.5" y="48.5" width="8" height="10"/>
<rect x="112.5" y="48.5" width="8" height="10"/>
<rect x="120.5" y="48.5" width="8" height="10"/>
<rect x="128.5" y="48.5" width="8" height="10"/>
<rect x="136.5" y="48.5" width="8" height="10"/>
<rect x="144.5" y="48.5" width="8" height="10"/>
<rect x="152.5" y="48.5" width="8" height="10"/>
<rect x="160.5" y="48.5" width="8" height="10"/>
<rect x="168.5" y="48.5" width="8" height="10"/>
<rect x="176.5" y="48.5" width="8" height="10"/>
<rect x="184.5" y="48.5" width="8" height="10"/>
</g>
<text x="419.64304" y="95.625977" fill="#000000" font-family="DejaVu Sans" font-size="12px" letter-spacing="0px" word-spacing="0px" style="line-height:125%" xml:space="preserve"><tspan x="419.64304" y="95.625977">Key</tspan></text>
<g transform="translate(386,117)" fill="none" stroke="#000" stroke-linecap="square">
<rect x="88.5" y="48.5" width="8" height="10"/>
<rect x="96.5" y="48.5" width="8" height="10"/>
<rect x="104.5" y="48.5" width="8" height="10"/>
<rect x="112.5" y="48.5" width="8" height="10"/>
<rect x="120.5" y="48.5" width="8" height="10"/>
<rect x="128.5" y="48.5" width="8" height="10"/>
<rect x="136.5" y="48.5" width="8" height="10"/>
<rect x="144.5" y="48.5" width="8" height="10"/>
<rect x="152.5" y="48.5" width="8" height="10"/>
<rect x="160.5" y="48.5" width="8" height="10"/>
<rect x="168.5" y="48.5" width="8" height="10"/>
<rect x="176.5" y="48.5" width="8" height="10"/>
<rect x="184.5" y="48.5" width="8" height="10"/>
</g>
<text x="526.30957" y="190.5" fill="#000000" font-family="DejaVu Sans" font-size="12px" letter-spacing="0px" word-spacing="0px" style="line-height:125%" xml:space="preserve"><tspan x="526.30957" y="190.5" text-align="center" text-anchor="middle">Plaintext</tspan></text>
<path d="m526.5 113.5v47" fill="none" marker-end="url(#a)" stroke="#000" stroke-width="1px"/>
<path d="m445.5 92.5h27" fill="none" marker-end="url(#a)" stroke="#000" stroke-width="1px"/>
<path d="m526.5 51.5v19" fill="none" marker-end="url(#a)" stroke="#000" stroke-width="1px"/>
<text x="526.05762" y="27.499998" fill="#000000" font-family="DejaVu Sans" font-size="12px" letter-spacing="0px" text-align="center" text-anchor="middle" word-spacing="0px" style="line-height:125%" xml:space="preserve"><tspan x="526.05762" y="27.499998" font-family="DejaVu Sans" font-size="12px" text-align="center" text-anchor="middle" style="line-height:125%">Ciphertext</tspan></text>
<g transform="translate(388 10)" fill="none" stroke="#000">
<path transform="translate(-2)" d="m146.5 133.5c0 3.3137-2.6863 6-6 6s-6-2.6863-6-6 2.6863-6 6-6 6 2.6863 6 6z" stroke-linecap="square"/>
<path d="m132.5 133.5h12" stroke-width="1px"/>
</g>
</g>
</svg>
